<?xml version="1.0" encoding="UTF-8"?>
<svg id="Layer_1" xmlns="http://www.w3.org/2000/svg" xmlns:xlink="http://www.w3.org/1999/xlink" version="1.1" viewBox="770 500 380 90">
  <!-- Generator: Adobe Illustrator 30.0.0, SVG Export Plug-In . SVG Version: 2.1.1 Build 123)  -->
  <defs>
    <style>
      .st0 {
        fill: #05b4dd;
      }

      .st1 {
        fill: url(#linear-gradient2);
      }

      .st2 {
        fill: url(#linear-gradient1);
      }

      .st3 {
        fill: url(#linear-gradient3);
      }

      .st4 {
        fill: #174887;
      }

      .st5 {
        fill: #231f20;
      }

      .st6 {
        fill: url(#linear-gradient);
      }
    </style>
    <linearGradient id="linear-gradient" x1="1212.56" y1="1392.93" x2="1231.99" y2="1422.08" gradientTransform="translate(2815.88 585.18) rotate(132.63)" gradientUnits="userSpaceOnUse">
      <stop offset="0" stop-color="#05b4dd"/>
      <stop offset="1" stop-color="#174887"/>
    </linearGradient>
    <linearGradient id="linear-gradient1" x1="1185.18" y1="1407.53" x2="1237.23" y2="1407.53" xlink:href="#linear-gradient"/>
    <linearGradient id="linear-gradient2" x1="1213.21" y1="1420.37" x2="1195.4" y2="1379.07" gradientTransform="translate(2815.88 585.18) rotate(132.63)" gradientUnits="userSpaceOnUse">
      <stop offset="0" stop-color="#05b4dd"/>
      <stop offset="1" stop-color="#137faf"/>
    </linearGradient>
    <linearGradient id="linear-gradient3" x1="1222.32" y1="1416.43" x2="1204.5" y2="1375.14" gradientTransform="translate(2815.88 585.18) rotate(132.63)" gradientUnits="userSpaceOnUse">
      <stop offset="0" stop-color="#05b4dd"/>
      <stop offset="1" stop-color="#174887"/>
    </linearGradient>
  </defs>
  <g>
    <path class="st6" d="M957.34,508.26s9.92,2.52,15.96,11.52c6.03,8.99,3.54,23.21-5.72,29.68-9.26,6.47-24.36,0-29.86-13.31-5.49-13.31,2.41-24.74,2.41-24.74,0,0-16.15,12.92-7.24,30.89,8.91,17.97,28.27,14.88,35.2,9.29,6.94-5.59,16.75-19.54,6.61-34.37,0,0-8.44-11.76-17.36-8.96Z"/>
    <path class="st2" d="M965.4,548.97s-11.85,2.82-17.5-5.51c-6.23-8.91-7.07-21.92,3.47-32.02,10.54-10.11,29.02-7.06,34.84,9.09,0,0,1.06-6.7-6.99-14.97-10.08-10.34-23.12-8.24-31.15-1.29-10.46,9.05-16.41,25.9-5.75,37.64,0,0,11.32,14.43,23.08,7.07Z"/>
    <path class="st1" d="M945.45,523.87s9.92-11.23,23.08-8.34c0,0-5.56-6.22-13.19-5.4,0,0-7.91,4.41-9.89,13.74Z"/>
    <path class="st3" d="M967.18,508.92s6.37,3.25,10.64,11.45c0,0,7.26,12.1.78,24.29,0,0-7.24,10.86-16.55,11.55,0,0,12,2.8,22.16-9.73,10.15-12.53.67-27.18.67-27.18,0,0-9.69-12.63-17.7-10.37Z"/>
  </g>
  <g>
    <path class="st4" d="M804.55,526.55h22.04v7.41h-22.04v12.5h23.42v7.72h-32.46v-47.09h32.27v7.72h-23.23v11.74Z"/>
    <path class="st4" d="M869.6,507.09h9.04v47.09h-15.01l-20.03-39.37h-.32l.75,39.37h-9.04v-47.09h14.94l20.15,39.37h.25l-.75-39.37Z"/>
    <path class="st4" d="M914.87,522.85v-2.57c0-1.38-.16-2.46-.47-3.23-.32-.77-.85-1.35-1.6-1.73-.75-.38-1.78-.62-3.08-.72-1.3-.1-2.93-.16-4.9-.16-2.26,0-4.09.13-5.5.38-1.4.25-2.49.76-3.26,1.54-.78.77-1.29,1.86-1.54,3.26-.25,1.4-.38,3.26-.38,5.56v10.42c0,2.34.12,4.25.35,5.71.23,1.47.71,2.61,1.44,3.42.73.82,1.8,1.37,3.2,1.66,1.4.29,3.3.44,5.68.44,1.8,0,3.37-.05,4.71-.16,1.34-.1,2.44-.38,3.3-.82.85-.44,1.49-1.13,1.91-2.07.42-.94.63-2.25.63-3.93v-2.57h9.04v3.08c.04,3.56-.41,6.27-1.35,8.13-.94,1.86-2.27,3.22-3.99,4.08-1.72.86-3.79,1.37-6.22,1.54-2.43.17-5.11.32-8.04.44-4.14.17-7.5-.06-10.05-.69-2.55-.63-4.54-1.7-5.96-3.2-1.42-1.51-2.39-3.48-2.89-5.9-.5-2.43-.78-5.36-.82-8.79v-10.8c0-3.77.38-6.84,1.13-9.23.75-2.38,1.92-4.27,3.52-5.65,1.59-1.38,3.63-2.32,6.12-2.83,2.49-.5,5.47-.75,8.95-.75,2.93,0,5.55.07,7.85.22,2.3.15,4.26.65,5.87,1.51,1.61.86,2.87,2.2,3.77,4.02.9,1.82,1.44,4.43,1.6,7.82v2.57h-9.04Z"/>
    <path class="st0" d="M1046.98,522.85v-2.57c0-1.38-.16-2.46-.47-3.23-.32-.77-.85-1.35-1.6-1.73-.75-.38-1.78-.62-3.08-.72-1.3-.1-2.93-.16-4.9-.16-2.26,0-4.09.13-5.5.38-1.4.25-2.49.76-3.26,1.54-.78.77-1.29,1.86-1.54,3.26-.25,1.4-.38,3.26-.38,5.56v10.42c0,2.34.12,4.25.35,5.71.23,1.47.71,2.61,1.44,3.42.73.82,1.8,1.37,3.2,1.66,1.4.29,3.3.44,5.68.44,1.8,0,3.37-.05,4.71-.16,1.34-.1,2.44-.38,3.3-.82.85-.44,1.49-1.13,1.91-2.07.42-.94.63-2.25.63-3.93v-2.57h9.04v3.08c.04,3.56-.41,6.27-1.35,8.13-.94,1.86-2.27,3.22-3.99,4.08-1.72.86-3.79,1.37-6.22,1.54-2.43.17-5.11.32-8.04.44-4.15.17-7.5-.06-10.05-.69-2.55-.63-4.54-1.7-5.97-3.2-1.42-1.51-2.39-3.48-2.89-5.9-.5-2.43-.78-5.36-.82-8.79v-10.8c0-3.77.38-6.84,1.13-9.23.75-2.38,1.92-4.27,3.52-5.65,1.59-1.38,3.63-2.32,6.12-2.83,2.49-.5,5.47-.75,8.95-.75,2.93,0,5.55.07,7.85.22,2.3.15,4.26.65,5.87,1.51,1.61.86,2.87,2.2,3.77,4.02.9,1.82,1.44,4.43,1.6,7.82v2.57h-9.04Z"/>
    <path class="st0" d="M1099.24,552.59c.33.45.45.94.37,1.47-.12.45-.39.84-.8,1.17-.45.28-.92.41-1.41.37-.57-.04-1.04-.29-1.41-.73l-5.58-6.56c-2.04,2.37-4.07,4.11-6.07,5.21-2.41,1.35-5.17,2.02-8.28,2.02-4.95,0-8.61-1.49-10.98-4.48-1.68-2.12-2.51-4.6-2.51-7.42s.84-5.42,2.51-7.66c1.75-2.33,4.76-4.76,9.01-7.3l-.49-.55c-1.84-2.12-3.12-3.78-3.86-4.97-1.19-2-1.78-3.94-1.78-5.82,0-2.53.9-4.7,2.7-6.5,2.04-2,4.78-3,8.22-3,3.23,0,5.78.96,7.66,2.88,1.64,1.72,2.46,3.78,2.46,6.19,0,2.66-.98,5.11-2.94,7.36-1.47,1.64-3.68,3.35-6.62,5.15l10.54,12.51c.7-1.27,1.25-2.47,1.66-3.62.45-1.23.77-2.43.98-3.62.08-.57.32-.98.73-1.23.41-.25.88-.31,1.41-.18.49.08.9.33,1.23.73.33.45.47,1,.43,1.66-.24,1.43-.65,2.88-1.22,4.35-.53,1.39-1.35,3.07-2.46,5.03l6.5,7.54ZM1076.19,531.31c-3.27,2.09-5.64,3.95-7.12,5.58-1.75,2-2.64,4.03-2.64,6.07,0,2.74.88,4.95,2.64,6.62,1.8,1.72,4.21,2.57,7.24,2.57,2.13,0,4.15-.59,6.07-1.78,1.88-1.1,3.66-2.76,5.33-4.97l-11.53-14.1ZM1082.69,522.54c1.64-1.84,2.46-3.72,2.46-5.64s-.67-3.49-2.02-4.48c-1.1-.82-2.56-1.23-4.35-1.23-2.49,0-4.31.55-5.46,1.65-.98.98-1.47,2.41-1.47,4.29,0,1.31.55,2.82,1.66,4.54.69,1.06,1.98,2.7,3.86,4.91,2.21-1.15,3.99-2.49,5.33-4.05Z"/>
    <path class="st0" d="M1112.87,539.17v2.2c0,1.34.17,2.4.5,3.17.33.78.91,1.35,1.73,1.73.82.38,1.91.62,3.26.72,1.36.1,3.09.16,5.18.16s3.69-.1,4.93-.31c1.24-.21,2.17-.59,2.82-1.13.65-.54,1.08-1.26,1.29-2.13.21-.88.31-2.01.31-3.39,0-1.67-.22-2.92-.66-3.74-.44-.82-1.11-1.39-2.01-1.73-.9-.33-2.01-.52-3.33-.57-1.32-.04-2.86-.1-4.61-.19-2.56-.17-4.94-.34-7.16-.53-2.22-.19-4.15-.7-5.78-1.54-1.63-.84-2.92-2.16-3.86-3.99-.94-1.82-1.41-4.45-1.41-7.88,0-3.22.48-5.73,1.44-7.53.96-1.8,2.31-3.13,4.05-3.99,1.74-.86,3.79-1.37,6.15-1.54,2.36-.17,4.97-.25,7.82-.25,2.39,0,4.65.08,6.78.25,2.14.17,3.99.66,5.56,1.48s2.82,2.07,3.74,3.77c.92,1.69,1.38,4.09,1.38,7.19v1.51h-9.04v-1.51c0-1.26-.13-2.24-.41-2.95-.27-.71-.74-1.24-1.41-1.6-.67-.35-1.54-.56-2.61-.63-1.07-.06-2.4-.09-3.99-.09-2.26,0-4.07.07-5.43.22-1.36.15-2.41.43-3.14.85-.73.42-1.22,1.02-1.47,1.79-.25.78-.38,1.79-.38,3.04,0,1.47.1,2.6.32,3.39.21.8.68,1.4,1.41,1.82.73.42,1.78.71,3.14.88,1.36.17,3.19.32,5.5.44,3.64.21,6.65.48,9.01.82,2.37.33,4.25.95,5.65,1.85,1.4.9,2.39,2.2,2.95,3.89.57,1.7.85,4.05.85,7.06,0,3.31-.39,5.91-1.16,7.82-.78,1.91-1.94,3.35-3.49,4.33-1.55.99-3.48,1.6-5.78,1.85-2.3.25-4.96.38-7.97.38-2.59,0-5.08-.05-7.47-.16-2.39-.1-4.49-.56-6.31-1.38-1.82-.82-3.26-2.11-4.33-3.89-1.07-1.78-1.6-4.36-1.6-7.75v-2.2h9.04Z"/>
  </g>
  <g>
    <path class="st5" d="M778.29,572.47h6.61l-.49,2.22h-6.61l-.79,3.75h7.03l-.49,2.32h-9.74l2.99-14.13h9.68l-.49,2.32h-6.97l-.73,3.52Z"/>
    <path class="st5" d="M790.07,570.87l-.32,1.49h.08c.2-.36.43-.65.68-.87.26-.21.53-.37.82-.48.29-.11.6-.17.92-.21.33-.03.67-.05,1.02-.05.65,0,1.18.07,1.59.21.4.14.7.35.9.63.2.28.31.64.33,1.08.02.44-.03.96-.16,1.56l-1.4,6.52h-2.37l1.34-6.27c.08-.35.12-.65.12-.89,0-.25-.05-.45-.15-.6-.1-.15-.27-.26-.5-.33-.23-.07-.54-.1-.92-.1-.52,0-.94.06-1.28.18-.34.12-.61.29-.83.53-.21.23-.38.52-.51.87-.13.35-.23.74-.32,1.18l-1.15,5.44h-2.37l2.11-9.89h2.37Z"/>
    <path class="st5" d="M797.75,570.87h1.24l.47-2.24h2.37l-.47,2.24h3.79l-.4,1.81h-3.79l-1.07,5.07c-.03.23-.07.42-.09.58-.03.16-.02.3.02.42.04.11.12.19.24.24.13.05.32.07.57.07.34,0,.6-.06.79-.18.19-.12.33-.28.44-.48.11-.2.18-.42.23-.67s.11-.5.17-.76h2.09c-.15.75-.33,1.38-.53,1.87-.21.5-.47.9-.78,1.2-.32.3-.7.52-1.15.64-.45.13-1,.19-1.64.19s-1.19-.04-1.6-.13c-.41-.09-.73-.25-.94-.48-.22-.23-.33-.55-.36-.95-.03-.4.03-.92.17-1.54l1.07-5.09h-1.24l.39-1.81Z"/>
    <path class="st5" d="M814.31,577.61c-.16.78-.4,1.39-.7,1.82-.31.43-.69.76-1.13.97-.45.21-.96.35-1.54.4-.58.05-1.22.08-1.92.08-.94,0-1.69-.08-2.25-.25-.56-.16-.97-.44-1.22-.83-.26-.39-.38-.91-.36-1.55.02-.65.13-1.45.33-2.4.19-.88.4-1.64.64-2.28.24-.64.56-1.17.97-1.58.41-.41.94-.72,1.57-.92.64-.2,1.46-.3,2.47-.3s1.81.08,2.38.25c.57.17.97.46,1.21.88.23.42.32.98.27,1.69-.05.71-.18,1.6-.41,2.68h-6.8c-.11.53-.2.97-.25,1.34-.05.37-.03.65.07.87.1.21.28.37.56.46.28.09.68.14,1.2.14.33,0,.63,0,.9-.02.28-.01.52-.06.74-.15.22-.09.41-.23.56-.43.15-.2.26-.48.34-.85h2.37ZM812.56,574.75c.12-.5.17-.9.18-1.19,0-.3-.06-.52-.19-.66s-.34-.23-.62-.27c-.28-.04-.67-.06-1.16-.06s-.92.03-1.22.09c-.3.06-.54.17-.72.34-.18.16-.32.39-.42.67-.09.28-.18.64-.27,1.08h4.43Z"/>
    <path class="st5" d="M819.85,570.87l-.34,1.3h.09c.35-.55.79-.93,1.3-1.12.51-.19,1.06-.29,1.64-.29.53,0,.94.07,1.24.23.3.15.52.36.66.63.14.27.2.6.2.98,0,.39-.06.81-.16,1.27l-.17.79h-2.22l.11-.51c.05-.25.08-.47.1-.67.02-.2,0-.36-.05-.5-.06-.14-.16-.24-.3-.31-.14-.07-.35-.1-.63-.1-.7,0-1.22.19-1.55.56-.33.38-.56.89-.67,1.53l-1.3,6.1h-2.37l2.11-9.89h2.32Z"/>
    <path class="st5" d="M828.49,572.35h.07c.44-.65.95-1.08,1.52-1.29.57-.21,1.21-.31,1.91-.31.92,0,1.6.13,2.05.41.45.27.75.65.89,1.13.15.48.17,1.05.08,1.71-.09.65-.21,1.36-.38,2.11-.15.73-.33,1.39-.53,1.97-.21.59-.49,1.08-.83,1.5-.35.42-.8.73-1.35.96-.55.23-1.25.34-2.09.34-.3,0-.6-.02-.89-.06-.3-.04-.57-.11-.81-.21-.24-.1-.45-.25-.62-.43-.17-.19-.28-.43-.35-.73h-.09l-1.19,5.59h-2.37l3.01-14.16h2.37l-.42,1.49ZM830.58,578.95c.28-.07.53-.22.73-.43.2-.21.39-.51.54-.89s.3-.89.43-1.52c.11-.57.21-1.07.28-1.51.08-.44.08-.81.02-1.11-.06-.3-.22-.53-.48-.69-.26-.16-.65-.23-1.2-.23-.6,0-1.08.07-1.44.23-.36.15-.64.38-.85.67-.21.29-.37.66-.47,1.1-.1.44-.22.95-.35,1.55-.12.53-.18.98-.21,1.36-.03.38.02.68.13.91.12.23.32.4.6.52.29.11.69.17,1.2.17.42,0,.76-.04,1.05-.11Z"/>
    <path class="st5" d="M839.95,570.87l-.34,1.3h.09c.35-.55.79-.93,1.3-1.12.51-.19,1.06-.29,1.64-.29.53,0,.94.07,1.24.23.3.15.52.36.66.63.14.27.2.6.2.98,0,.39-.06.81-.16,1.27l-.17.79h-2.22l.11-.51c.05-.25.08-.47.1-.67.02-.2,0-.36-.05-.5-.06-.14-.16-.24-.3-.31-.14-.07-.35-.1-.63-.1-.7,0-1.22.19-1.55.56-.33.38-.56.89-.67,1.53l-1.3,6.1h-2.37l2.11-9.89h2.32Z"/>
    <path class="st5" d="M846.8,580.76h-2.37l2.11-9.89h2.37l-2.11,9.89ZM849.38,568.64h-2.37l.41-2.02h2.37l-.42,2.02Z"/>
    <path class="st5" d="M856.54,573.56c.07-.3.08-.53.04-.69-.04-.16-.13-.27-.27-.35-.14-.07-.33-.12-.57-.13-.23-.01-.5-.02-.82-.02s-.6,0-.87.02c-.26.01-.5.06-.7.14-.21.08-.38.21-.52.39-.14.17-.25.43-.32.75-.05.25-.07.44-.05.58.02.13.1.23.24.31.15.08.37.13.67.15.3.03.71.05,1.22.07.58.03,1.13.05,1.66.08s.97.14,1.34.33c.37.19.62.49.77.9.15.41.14,1.02-.02,1.83-.14.67-.37,1.19-.7,1.58-.33.39-.73.69-1.19.89-.46.2-.97.33-1.54.39-.57.06-1.17.08-1.8.08-.68,0-1.29-.02-1.84-.05-.55-.03-.99-.15-1.35-.35-.35-.2-.59-.52-.72-.96-.12-.44-.1-1.06.08-1.86h2.37c-.07.36-.09.65-.08.86.01.21.08.37.22.48.13.11.33.18.59.22.27.03.62.05,1.06.05.35,0,.67,0,.95-.02.28-.01.53-.06.73-.13.2-.08.38-.2.52-.39s.25-.44.32-.78c.05-.21.08-.4.08-.57s-.07-.3-.2-.41c-.13-.11-.36-.2-.67-.26-.32-.06-.77-.09-1.37-.1-.9-.01-1.63-.06-2.17-.15-.54-.09-.94-.24-1.21-.46-.26-.22-.41-.53-.43-.92-.03-.4.03-.91.17-1.54.14-.68.36-1.2.67-1.57.31-.37.68-.65,1.13-.83.45-.18.95-.29,1.5-.32.55-.03,1.15-.05,1.79-.05.49,0,.99.02,1.48.05.5.03.93.14,1.3.32.37.18.65.46.83.84.18.38.2.91.05,1.6h-2.37Z"/>
    <path class="st5" d="M868.95,577.61c-.16.78-.4,1.39-.7,1.82-.31.43-.68.76-1.13.97s-.96.35-1.54.4c-.58.05-1.22.08-1.92.08-.94,0-1.69-.08-2.25-.25-.56-.16-.97-.44-1.22-.83-.26-.39-.38-.91-.36-1.55.02-.65.13-1.45.33-2.4.19-.88.4-1.64.64-2.28.24-.64.56-1.17.97-1.58.41-.41.94-.72,1.57-.92.64-.2,1.46-.3,2.47-.3s1.81.08,2.38.25c.57.17.97.46,1.21.88.23.42.32.98.27,1.69-.05.71-.18,1.6-.41,2.68h-6.8c-.11.53-.2.97-.25,1.34-.05.37-.03.65.07.87.1.21.28.37.56.46.28.09.68.14,1.2.14.33,0,.63,0,.9-.02.28-.01.52-.06.74-.15.22-.09.41-.23.56-.43.15-.2.26-.48.34-.85h2.37ZM867.2,574.75c.12-.5.17-.9.18-1.19,0-.3-.06-.52-.19-.66s-.34-.23-.62-.27c-.28-.04-.67-.06-1.16-.06s-.92.03-1.22.09c-.3.06-.54.17-.72.34-.18.16-.32.39-.42.67-.09.28-.18.64-.27,1.08h4.43Z"/>
    <path class="st5" d="M887.32,571.36l.17-.77c.09-.41.11-.74.07-.97-.04-.23-.17-.41-.37-.52-.2-.11-.49-.19-.88-.22-.39-.03-.87-.05-1.46-.05-.68,0-1.24.04-1.68.11-.44.08-.8.23-1.08.46-.28.23-.51.56-.67.98-.17.42-.32.98-.47,1.67l-.66,3.12c-.15.7-.24,1.28-.26,1.71-.03.44.05.78.22,1.03.17.24.45.41.86.5.4.09.96.13,1.67.13.54,0,1.02-.02,1.42-.05.41-.03.75-.11,1.04-.24.29-.13.53-.34.71-.62.18-.28.32-.68.42-1.18l.17-.77h2.71l-.19.92c-.21,1.07-.52,1.88-.92,2.44-.4.56-.89.97-1.47,1.22-.58.26-1.23.41-1.97.46-.73.05-1.54.09-2.42.13-1.25.05-2.25-.02-2.97-.21-.73-.19-1.26-.51-1.58-.96-.33-.45-.49-1.04-.49-1.77s.11-1.61.32-2.64l.68-3.24c.24-1.13.55-2.05.93-2.77.38-.72.86-1.28,1.42-1.69.56-.42,1.24-.7,2.01-.85.78-.15,1.69-.23,2.73-.23.88,0,1.66.02,2.34.07.68.04,1.23.19,1.66.45.42.26.72.66.87,1.2.16.55.15,1.33,0,2.35l-.17.77h-2.71Z"/>
    <path class="st5" d="M898.83,571.01c.58.17.99.45,1.22.84.24.39.34.91.3,1.56-.03.65-.16,1.46-.36,2.41-.2.95-.42,1.76-.66,2.4-.24.65-.56,1.17-.96,1.55-.4.39-.93.67-1.58.84-.65.17-1.49.25-2.52.25s-1.83-.08-2.41-.25c-.58-.17-.99-.45-1.22-.84-.24-.39-.34-.91-.3-1.55.04-.65.16-1.45.36-2.4.2-.95.42-1.76.66-2.41.24-.65.56-1.17.96-1.56.4-.39.93-.67,1.59-.84.65-.17,1.49-.25,2.52-.25s1.84.08,2.41.25ZM894.75,572.69c-.32.09-.58.25-.79.5-.21.24-.37.58-.5,1.01-.13.43-.27.97-.42,1.64-.14.67-.23,1.21-.28,1.62-.05.41-.02.74.08.98.11.24.3.4.58.49.28.09.68.13,1.21.13s.95-.04,1.27-.13c.32-.09.58-.25.79-.49.21-.24.37-.57.5-.98.13-.41.26-.95.4-1.62.15-.67.25-1.21.3-1.64.05-.43.02-.76-.08-1.01-.11-.25-.3-.41-.58-.5-.28-.09-.69-.13-1.21-.13s-.95.04-1.27.13Z"/>
    <path class="st5" d="M905.2,570.87l-.34,1.3h.09c.35-.55.79-.93,1.3-1.12.51-.19,1.06-.29,1.64-.29.53,0,.94.07,1.24.23.3.15.52.36.66.63.14.27.2.6.2.98,0,.39-.06.81-.16,1.27l-.17.79h-2.22l.11-.51c.05-.25.08-.47.1-.67.02-.2,0-.36-.05-.5-.06-.14-.16-.24-.3-.31-.14-.07-.35-.1-.63-.1-.7,0-1.22.19-1.55.56-.33.38-.56.89-.67,1.53l-1.3,6.1h-2.37l2.11-9.89h2.32Z"/>
    <path class="st5" d="M919.41,577.61c-.16.78-.4,1.39-.7,1.82-.31.43-.68.76-1.13.97-.45.21-.96.35-1.54.4-.58.05-1.22.08-1.92.08-.94,0-1.69-.08-2.25-.25-.56-.16-.97-.44-1.22-.83-.26-.39-.38-.91-.36-1.55s.13-1.45.33-2.4c.19-.88.4-1.64.64-2.28.24-.64.56-1.17.97-1.58.41-.41.94-.72,1.57-.92.64-.2,1.46-.3,2.47-.3s1.81.08,2.38.25c.57.17.97.46,1.21.88.23.42.32.98.27,1.69-.05.71-.18,1.6-.41,2.68h-6.8c-.11.53-.2.97-.25,1.34-.05.37-.03.65.07.87.1.21.28.37.56.46.28.09.68.14,1.2.14.33,0,.63,0,.9-.02.28-.01.52-.06.74-.15.22-.09.41-.23.56-.43.15-.2.26-.48.34-.85h2.37ZM917.66,574.75c.12-.5.17-.9.18-1.19,0-.3-.06-.52-.19-.66-.13-.14-.34-.23-.62-.27-.28-.04-.67-.06-1.16-.06s-.92.03-1.22.09c-.3.06-.54.17-.72.34-.18.16-.32.39-.42.67-.09.28-.18.64-.27,1.08h4.43Z"/>
    <path class="st5" d="M937.78,571.36l.17-.77c.09-.41.11-.74.07-.97-.04-.23-.17-.41-.37-.52-.2-.11-.49-.19-.88-.22-.39-.03-.87-.05-1.46-.05-.68,0-1.24.04-1.68.11-.44.08-.8.23-1.08.46-.28.23-.51.56-.67.98-.17.42-.32.98-.47,1.67l-.66,3.12c-.15.7-.24,1.28-.26,1.71-.03.44.05.78.22,1.03.17.24.45.41.86.5.4.09.96.13,1.67.13.54,0,1.02-.02,1.42-.05.41-.03.75-.11,1.04-.24.29-.13.53-.34.71-.62.18-.28.32-.68.42-1.18l.17-.77h2.71l-.19.92c-.21,1.07-.52,1.88-.92,2.44-.4.56-.89.97-1.47,1.22-.58.26-1.23.41-1.97.46-.73.05-1.54.09-2.42.13-1.25.05-2.25-.02-2.97-.21-.73-.19-1.26-.51-1.58-.96-.33-.45-.49-1.04-.49-1.77s.11-1.61.32-2.64l.68-3.24c.24-1.13.55-2.05.93-2.77.38-.72.86-1.28,1.42-1.69.56-.42,1.24-.7,2.01-.85.78-.15,1.69-.23,2.73-.23.88,0,1.66.02,2.34.07.68.04,1.23.19,1.66.45.42.26.72.66.87,1.2.16.55.15,1.33,0,2.35l-.17.77h-2.71Z"/>
    <path class="st5" d="M949.29,571.01c.58.17.99.45,1.22.84.24.39.34.91.3,1.56-.03.65-.16,1.46-.36,2.41-.2.95-.42,1.76-.66,2.4-.24.65-.56,1.17-.96,1.55-.4.39-.93.67-1.58.84-.65.17-1.49.25-2.52.25s-1.83-.08-2.41-.25c-.58-.17-.99-.45-1.22-.84-.24-.39-.34-.91-.3-1.55.04-.65.16-1.45.36-2.4.2-.95.42-1.76.66-2.41.24-.65.56-1.17.96-1.56.4-.39.93-.67,1.59-.84.65-.17,1.49-.25,2.52-.25s1.84.08,2.41.25ZM945.21,572.69c-.32.09-.59.25-.79.5-.21.24-.37.58-.5,1.01-.13.43-.27.97-.42,1.64-.14.67-.23,1.21-.28,1.62-.05.41-.02.74.08.98.11.24.3.4.58.49.28.09.68.13,1.21.13s.95-.04,1.27-.13c.32-.09.58-.25.79-.49.21-.24.37-.57.5-.98.13-.41.26-.95.4-1.62.15-.67.25-1.21.3-1.64.05-.43.02-.76-.08-1.01-.11-.25-.3-.41-.59-.5-.28-.09-.68-.13-1.21-.13s-.95.04-1.27.13Z"/>
    <path class="st5" d="M955.88,570.87l-.32,1.49h.08c.2-.36.43-.65.68-.87.26-.21.53-.37.82-.48.29-.11.6-.17.92-.21.33-.03.67-.05,1.02-.05.65,0,1.18.07,1.59.21.4.14.7.35.9.63.2.28.31.64.33,1.08.02.44-.03.96-.16,1.56l-1.4,6.52h-2.37l1.34-6.27c.08-.35.12-.65.12-.89,0-.25-.05-.45-.15-.6-.1-.15-.27-.26-.5-.33-.23-.07-.54-.1-.92-.1-.52,0-.94.06-1.28.18-.34.12-.61.29-.83.53-.21.23-.38.52-.51.87-.13.35-.23.74-.32,1.18l-1.15,5.44h-2.37l2.11-9.89h2.37Z"/>
    <path class="st5" d="M970.2,573.56c.07-.3.08-.53.04-.69-.04-.16-.13-.27-.27-.35-.14-.07-.33-.12-.57-.13-.23-.01-.5-.02-.82-.02s-.6,0-.87.02c-.26.01-.5.06-.7.14-.21.08-.38.21-.52.39-.14.17-.25.43-.32.75-.05.25-.07.44-.05.58.02.13.1.23.24.31.15.08.37.13.67.15.3.03.71.05,1.22.07.58.03,1.13.05,1.66.08s.97.14,1.34.33c.37.19.62.49.77.9s.14,1.02-.02,1.83c-.14.67-.37,1.19-.7,1.58-.33.39-.73.69-1.19.89-.46.2-.97.33-1.54.39-.57.06-1.17.08-1.8.08-.68,0-1.29-.02-1.84-.05-.55-.03-.99-.15-1.35-.35-.35-.2-.59-.52-.72-.96-.12-.44-.1-1.06.08-1.86h2.37c-.07.36-.09.65-.08.86.01.21.08.37.22.48.13.11.33.18.59.22.27.03.62.05,1.06.05.35,0,.67,0,.95-.02.28-.01.53-.06.73-.13.2-.08.38-.2.52-.39.14-.18.25-.44.32-.78.05-.21.08-.4.08-.57s-.07-.3-.2-.41c-.13-.11-.36-.2-.67-.26-.32-.06-.77-.09-1.37-.1-.9-.01-1.63-.06-2.17-.15-.54-.09-.94-.24-1.21-.46-.26-.22-.41-.53-.43-.92-.03-.4.03-.91.17-1.54.14-.68.36-1.2.67-1.57.31-.37.68-.65,1.13-.83.45-.18.95-.29,1.5-.32.55-.03,1.15-.05,1.79-.05.49,0,.99.02,1.48.05.5.03.93.14,1.3.32.37.18.65.46.83.84.18.38.2.91.05,1.6h-2.37Z"/>
    <path class="st5" d="M979.68,580.76l.32-1.53h-.07c-.22.33-.45.6-.71.81s-.53.38-.83.51c-.3.13-.61.21-.94.25-.32.04-.66.07-1,.07-.49,0-.93-.05-1.32-.14-.39-.09-.7-.25-.95-.47-.24-.22-.41-.51-.49-.88-.08-.36-.07-.82.05-1.35l1.53-7.16h2.37l-1.34,6.23c-.08.35-.13.65-.15.9-.03.25,0,.45.08.61.08.16.22.27.43.34.21.07.5.1.88.1.92,0,1.59-.2,2.02-.59.44-.4.74-1.03.91-1.89l1.23-5.71h2.37l-2.11,9.89h-2.3Z"/>
    <path class="st5" d="M986.72,580.76h-2.37l3-14.13h2.37l-2.99,14.13Z"/>
    <path class="st5" d="M989.97,570.87h1.24l.47-2.24h2.37l-.47,2.24h3.79l-.4,1.81h-3.79l-1.07,5.07c-.03.23-.07.42-.09.58-.03.16-.02.3.02.42.04.11.12.19.24.24.13.05.32.07.57.07.34,0,.6-.06.79-.18.19-.12.33-.28.44-.48.11-.2.18-.42.23-.67s.11-.5.17-.76h2.09c-.15.75-.33,1.38-.53,1.87-.21.5-.47.9-.78,1.2-.32.3-.7.52-1.15.64-.45.13-1,.19-1.64.19s-1.19-.04-1.6-.13c-.41-.09-.73-.25-.94-.48-.22-.23-.33-.55-.36-.95-.03-.4.03-.92.17-1.54l1.07-5.09h-1.24l.39-1.81Z"/>
    <path class="st5" d="M999.32,580.76h-2.37l2.11-9.89h2.37l-2.11,9.89ZM1001.9,568.64h-2.37l.41-2.02h2.37l-.42,2.02Z"/>
    <path class="st5" d="M1006,570.87l-.32,1.49h.08c.2-.36.43-.65.69-.87.26-.21.53-.37.82-.48.29-.11.6-.17.92-.21.33-.03.67-.05,1.02-.05.65,0,1.18.07,1.59.21.4.14.7.35.9.63.2.28.31.64.33,1.08.02.44-.03.96-.16,1.56l-1.4,6.52h-2.37l1.34-6.27c.08-.35.12-.65.12-.89,0-.25-.05-.45-.15-.6-.1-.15-.27-.26-.5-.33-.23-.07-.54-.1-.92-.1-.52,0-.94.06-1.28.18-.34.12-.61.29-.83.53-.21.23-.38.52-.51.87-.13.35-.23.74-.32,1.18l-1.15,5.44h-2.37l2.11-9.89h2.37Z"/>
    <path class="st5" d="M1019.64,579.34h-.05c-.23.33-.47.59-.74.79-.27.2-.55.35-.85.46-.3.11-.6.18-.9.22-.31.04-.61.06-.92.06-.85,0-1.5-.11-1.96-.34-.45-.23-.76-.55-.93-.96-.17-.41-.23-.91-.18-1.5.05-.58.15-1.24.3-1.97.16-.75.34-1.46.53-2.11.19-.65.45-1.22.8-1.71.35-.48.8-.86,1.37-1.13.57-.27,1.3-.41,2.22-.41.7,0,1.29.1,1.77.31.47.21.8.64.97,1.29h.08l.22-1.49h2.37l-2.11,9.87c-.19.89-.42,1.62-.69,2.2-.27.57-.63,1.02-1.07,1.35-.44.33-.97.55-1.61.68-.63.12-1.4.19-2.31.19-.6,0-1.15-.04-1.65-.11-.49-.07-.9-.23-1.21-.46-.32-.23-.52-.57-.62-1.02-.1-.45-.05-1.04.15-1.78h2.22c-.08.34-.1.61-.08.82.03.21.1.37.22.47.12.11.29.18.52.22.23.04.51.06.85.06.5,0,.92-.03,1.25-.09.33-.06.6-.17.82-.33.21-.16.38-.37.51-.64.13-.27.23-.62.32-1.04l.39-1.88ZM1017.58,572.68c-.28.07-.53.22-.74.43-.21.21-.38.51-.53.9-.15.39-.29.89-.42,1.51-.11.56-.21,1.07-.28,1.51-.08.44-.08.81-.01,1.11.07.3.23.53.48.69.25.16.64.23,1.17.23.59,0,1.07-.07,1.42-.23.36-.15.64-.38.85-.67.21-.29.37-.66.49-1.1.12-.44.24-.95.37-1.54.11-.53.18-.98.21-1.36.02-.38-.02-.68-.14-.91-.12-.23-.32-.4-.61-.52-.29-.11-.69-.17-1.2-.17-.42,0-.76.04-1.05.11Z"/>
    <path class="st5" d="M1033.64,578.08l-1.45,2.67h-2.81l7.69-14.13h3.99l1.79,14.13h-2.75l-.36-2.67h-6.1ZM1038.7,568.7h-.04l-3.97,7.33h4.88l-.87-7.33Z"/>
    <path class="st5" d="M1048.44,570.87l-.32,1.49h.08c.2-.36.43-.65.68-.87.26-.21.53-.37.82-.48.29-.11.6-.17.92-.21.33-.03.67-.05,1.02-.05.65,0,1.18.07,1.59.21.4.14.7.35.9.63.2.28.31.64.33,1.08.02.44-.03.96-.16,1.56l-1.4,6.52h-2.37l1.34-6.27c.08-.35.12-.65.12-.89,0-.25-.05-.45-.15-.6-.1-.15-.27-.26-.5-.33-.23-.07-.54-.1-.92-.1-.52,0-.94.06-1.28.18-.34.12-.61.29-.83.53-.21.23-.38.52-.51.87-.13.35-.23.74-.32,1.18l-1.15,5.44h-2.37l2.11-9.89h2.37Z"/>
    <path class="st5" d="M1062.1,579.27h-.08c-.44.65-.94,1.08-1.52,1.29-.57.21-1.21.31-1.91.31-.92,0-1.6-.13-2.06-.41-.45-.27-.75-.65-.89-1.13-.15-.48-.17-1.05-.08-1.7.08-.65.21-1.36.37-2.11.15-.73.33-1.39.54-1.97.21-.59.48-1.08.83-1.5.35-.42.79-.73,1.34-.96.55-.23,1.25-.34,2.1-.34.3,0,.59.02.89.06.29.04.55.11.8.21.24.1.45.24.63.43.17.19.29.43.36.73h.09l1.17-5.56h2.37l-2.99,14.13h-2.37l.42-1.49ZM1060,572.68c-.28.07-.53.22-.73.43-.21.21-.38.51-.53.9-.15.39-.29.89-.42,1.51-.11.56-.21,1.07-.29,1.51-.08.44-.09.81-.02,1.11.07.3.23.53.48.69.25.16.65.23,1.19.23.6,0,1.08-.07,1.43-.23.35-.15.63-.38.84-.67.21-.29.37-.66.47-1.1.1-.44.22-.95.35-1.54.12-.53.18-.98.21-1.36.03-.38-.02-.68-.13-.91-.12-.23-.31-.4-.59-.52-.28-.11-.68-.17-1.2-.17-.42,0-.76.04-1.05.11Z"/>
    <path class="st5" d="M1076.15,576.25l-.15.66c-.09.4-.11.72-.06.95.05.23.18.41.4.52.22.11.53.18.94.22.41.03.93.05,1.56.05s1.11-.03,1.5-.09c.38-.06.69-.18.92-.34.23-.16.4-.38.52-.64.12-.26.22-.6.3-1.02.11-.5.13-.88.05-1.12-.08-.25-.25-.42-.49-.52-.25-.1-.57-.16-.96-.17-.4-.01-.86-.03-1.39-.06-.5-.04-.98-.07-1.44-.09-.46-.03-.88-.08-1.27-.16-.39-.08-.73-.2-1.03-.37-.3-.16-.53-.4-.7-.7-.17-.3-.27-.68-.3-1.14-.03-.46.03-1.03.18-1.72.2-.97.5-1.72.9-2.26.4-.54.89-.94,1.47-1.2.58-.26,1.22-.41,1.95-.46.72-.05,1.51-.07,2.36-.07.72,0,1.39.02,2.02.07.63.05,1.15.2,1.57.44.42.24.72.62.89,1.13.17.51.15,1.23-.05,2.16l-.1.45h-2.71l.1-.45c.07-.38.09-.67.05-.89-.03-.21-.14-.37-.32-.48-.17-.11-.42-.17-.73-.19-.31-.02-.71-.03-1.19-.03-.68,0-1.22.02-1.64.07-.41.04-.75.13-1,.25-.25.13-.44.3-.57.54-.13.23-.23.54-.3.91-.1.44-.14.78-.12,1.02.02.24.12.42.31.55.19.13.48.21.89.26.4.05.94.09,1.62.13,1.07.06,1.95.14,2.64.24.7.1,1.22.29,1.58.56.36.27.57.66.62,1.17.06.51-.01,1.21-.2,2.12-.22.99-.5,1.77-.85,2.35-.35.57-.79,1-1.31,1.3-.52.3-1.14.48-1.85.56-.71.07-1.52.11-2.42.11-.51,0-1.02,0-1.52,0-.49,0-.95-.04-1.38-.11-.43-.07-.81-.18-1.14-.34-.33-.16-.6-.38-.8-.67-.2-.29-.33-.66-.38-1.12s0-1.03.13-1.7l.15-.66h2.71Z"/>
    <path class="st5" d="M1094.55,571.01c.58.17.99.45,1.22.84.24.39.34.91.3,1.56-.03.65-.16,1.46-.36,2.41-.2.95-.42,1.76-.66,2.4-.24.65-.56,1.17-.96,1.55-.4.39-.93.67-1.58.84-.65.17-1.49.25-2.52.25s-1.83-.08-2.41-.25c-.58-.17-.99-.45-1.22-.84-.24-.39-.34-.91-.3-1.55.04-.65.16-1.45.36-2.4.2-.95.42-1.76.66-2.41.24-.65.56-1.17.96-1.56.4-.39.93-.67,1.59-.84.65-.17,1.49-.25,2.52-.25s1.84.08,2.41.25ZM1090.48,572.69c-.32.09-.58.25-.79.5-.21.24-.37.58-.5,1.01-.13.43-.27.97-.42,1.64-.14.67-.23,1.21-.28,1.62-.05.41-.02.74.08.98.11.24.3.4.58.49.28.09.69.13,1.21.13s.95-.04,1.27-.13c.32-.09.58-.25.79-.49.21-.24.37-.57.5-.98.13-.41.26-.95.4-1.62.15-.67.25-1.21.3-1.64.05-.43.02-.76-.08-1.01-.11-.25-.3-.41-.58-.5-.28-.09-.68-.13-1.21-.13s-.95.04-1.27.13Z"/>
    <path class="st5" d="M1099.05,580.76h-2.37l3-14.13h2.37l-2.99,14.13Z"/>
    <path class="st5" d="M1107.92,580.76l.32-1.53h-.07c-.22.33-.45.6-.71.81-.26.21-.54.38-.83.51-.3.13-.61.21-.94.25-.32.04-.66.07-1,.07-.49,0-.93-.05-1.32-.14-.39-.09-.7-.25-.95-.47-.24-.22-.41-.51-.49-.88-.08-.36-.07-.82.05-1.35l1.53-7.16h2.37l-1.34,6.23c-.08.35-.13.65-.15.9-.03.25,0,.45.08.61.08.16.22.27.43.34.21.07.5.1.88.1.92,0,1.59-.2,2.02-.59.44-.4.74-1.03.91-1.89l1.23-5.71h2.37l-2.11,9.89h-2.3Z"/>
    <path class="st5" d="M1113.48,570.87h1.24l.47-2.24h2.37l-.47,2.24h3.79l-.4,1.81h-3.79l-1.07,5.07c-.03.23-.07.42-.09.58-.03.16-.02.3.02.42.04.11.12.19.24.24.13.05.32.07.57.07.34,0,.6-.06.79-.18.19-.12.33-.28.44-.48.11-.2.18-.42.23-.67.05-.24.11-.5.17-.76h2.09c-.15.75-.33,1.38-.54,1.87-.21.5-.47.9-.78,1.2-.32.3-.7.52-1.15.64-.45.13-1,.19-1.64.19s-1.19-.04-1.6-.13c-.41-.09-.73-.25-.94-.48-.22-.23-.33-.55-.36-.95-.03-.4.03-.92.17-1.54l1.07-5.09h-1.24l.39-1.81Z"/>
    <path class="st5" d="M1122.82,580.76h-2.37l2.11-9.89h2.37l-2.11,9.89ZM1125.4,568.64h-2.37l.41-2.02h2.37l-.42,2.02Z"/>
    <path class="st5" d="M1133.88,571.01c.58.17.99.45,1.22.84.24.39.34.91.3,1.56-.03.65-.16,1.46-.36,2.41-.2.95-.42,1.76-.66,2.4-.24.65-.56,1.17-.96,1.55-.4.39-.93.67-1.58.84-.65.17-1.49.25-2.52.25s-1.83-.08-2.41-.25c-.58-.17-.99-.45-1.22-.84-.24-.39-.34-.91-.3-1.55.04-.65.16-1.45.36-2.4.2-.95.42-1.76.66-2.41.24-.65.56-1.17.96-1.56.4-.39.93-.67,1.59-.84.65-.17,1.49-.25,2.52-.25s1.84.08,2.41.25ZM1129.8,572.69c-.32.09-.58.25-.79.5-.21.24-.37.58-.5,1.01-.13.43-.27.97-.42,1.64-.14.67-.23,1.21-.28,1.62-.05.41-.02.74.08.98.11.24.3.4.59.49.28.09.68.13,1.21.13s.95-.04,1.27-.13c.32-.09.58-.25.79-.49.21-.24.37-.57.5-.98.13-.41.26-.95.4-1.62.15-.67.25-1.21.3-1.64.05-.43.02-.76-.08-1.01-.11-.25-.3-.41-.58-.5-.28-.09-.68-.13-1.21-.13s-.95.04-1.27.13Z"/>
    <path class="st5" d="M1140.47,570.87l-.32,1.49h.08c.2-.36.43-.65.68-.87.26-.21.53-.37.82-.48.29-.11.6-.17.92-.21.33-.03.67-.05,1.02-.05.65,0,1.18.07,1.59.21.4.14.7.35.9.63.2.28.31.64.33,1.08.02.44-.03.96-.16,1.56l-1.4,6.52h-2.37l1.34-6.27c.08-.35.12-.65.12-.89,0-.25-.05-.45-.15-.6-.1-.15-.27-.26-.5-.33-.23-.07-.54-.1-.92-.1-.52,0-.94.06-1.28.18-.34.12-.61.29-.83.53-.21.23-.38.52-.51.87-.13.35-.23.74-.32,1.18l-1.15,5.44h-2.37l2.11-9.89h2.37Z"/>
  </g>
</svg>