<?xml version="1.0" encoding="UTF-8"?>
<svg id="Layer_1" xmlns="http://www.w3.org/2000/svg" xmlns:xlink="http://www.w3.org/1999/xlink" version="1.1" viewBox="940 500 70 70">
  <defs>
    <style>
      .st1 { fill: url(#linear-gradient2); }
      .st2 { fill: url(#linear-gradient1); }
      .st3 { fill: url(#linear-gradient3); }
      .st6 { fill: url(#linear-gradient); }
    </style>
    <linearGradient id="linear-gradient" x1="1212.56" y1="1392.93" x2="1231.99" y2="1422.08" gradientTransform="translate(2815.88 585.18) rotate(132.63)" gradientUnits="userSpaceOnUse">
      <stop offset="0" stop-color="#05b4dd"/>
      <stop offset="1" stop-color="#174887"/>
    </linearGradient>
    <linearGradient id="linear-gradient1" x1="1185.18" y1="1407.53" x2="1237.23" y2="1407.53" xlink:href="#linear-gradient"/>
    <linearGradient id="linear-gradient2" x1="1213.21" y1="1420.37" x2="1195.4" y2="1379.07" gradientTransform="translate(2815.88 585.18) rotate(132.63)" gradientUnits="userSpaceOnUse">
      <stop offset="0" stop-color="#05b4dd"/>
      <stop offset="1" stop-color="#137faf"/>
    </linearGradient>
    <linearGradient id="linear-gradient3" x1="1222.32" y1="1416.43" x2="1204.5" y2="1375.14" gradientTransform="translate(2815.88 585.18) rotate(132.63)" gradientUnits="userSpaceOnUse">
      <stop offset="0" stop-color="#05b4dd"/>
      <stop offset="1" stop-color="#174887"/>
    </linearGradient>
  </defs>
  <g>
    <path class="st6" d="M957.34,508.26s9.92,2.52,15.96,11.52c6.03,8.99,3.54,23.21-5.72,29.68-9.26,6.47-24.36,0-29.86-13.31-5.49-13.31,2.41-24.74,2.41-24.74,0,0-16.15,12.92-7.24,30.89,8.91,17.97,28.27,14.88,35.2,9.29,6.94-5.59,16.75-19.54,6.61-34.37,0,0-8.44-11.76-17.36-8.96Z"/>
    <path class="st2" d="M965.4,548.97s-11.85,2.82-17.5-5.51c-6.23-8.91-7.07-21.92,3.47-32.02,10.54-10.11,29.02-7.06,34.84,9.09,0,0,1.06-6.7-6.99-14.97-10.08-10.34-23.12-8.24-31.15-1.29-10.46,9.05-16.41,25.9-5.75,37.64,0,0,11.32,14.43,23.08,7.07Z"/>
    <path class="st1" d="M945.45,523.87s9.92-11.23,23.08-8.34c0,0-5.56-6.22-13.19-5.4,0,0-7.91,4.41-9.89,13.74Z"/>
    <path class="st3" d="M967.18,508.92s6.37,3.25,10.64,11.45c0,0,7.26,12.1.78,24.29,0,0-7.24,10.86-16.55,11.55,0,0,12,2.8,22.16-9.73,10.15-12.53.67-27.18.67-27.18,0,0-9.69-12.63-17.7-10.37Z"/>
  </g>
</svg>